<?xml version="1.0" encoding="UTF-8"?>
<svg width="1200pt" height="1200pt" version="1.1" viewBox="0 0 1200 1200" xmlns="http://www.w3.org/2000/svg">
 <g>
  <path d="m660.02 562.91c-0.17188 0.16016-17.645 16.34-60.016 16.34s-59.844-16.176-59.934-16.258c-3.7148-3.7188-9.7539-3.7188-13.465 0-3.7227 3.7227-3.7227 9.75 0 13.469 0.89062 0.89453 22.422 21.836 73.398 21.836 50.98 0 72.512-20.945 73.398-21.836 3.6875-3.6875 3.6836-9.6133 0.039062-13.344-3.6367-3.7344-9.6406-3.8086-13.422-0.20703z"/>
  <path d="m490.48 407.81c-4.7227 0-9.2031 0.99609-13.273 2.7656-0.46484-1.4961-0.875-3.0391-1.1992-4.6484-1.0391-5.1562-6.0586-8.4922-11.219-7.4531-5.1562 1.0391-8.4922 6.0625-7.4531 11.219 1.0273 5.0898 2.5898 9.8281 4.6484 14.219-1.2109 1.9922-2.2148 4.1172-2.9883 6.3555-5.1758-1.8203-9.8438-4.7422-13.391-9.2695-3.2422-4.1445-9.2266-4.875-13.367-1.6328-4.1406 3.2422-4.875 9.2266-1.6328 13.367 6.668 8.5234 16.125 14.281 27.723 17.098 3.8281 14.191 16.75 24.648 32.148 24.648 18.41 0 33.332-14.926 33.332-33.332 0.007812-18.41-14.918-33.336-33.328-33.336z"/>
  <path d="m767.77 419.37c-4.1445-3.2422-10.129-2.5078-13.367 1.6328-3.5469 4.5312-8.2188 7.4531-13.391 9.2695-0.77344-2.2383-1.7773-4.3633-2.9883-6.3555 2.0625-4.3945 3.625-9.1289 4.6484-14.219 1.0391-5.1562-2.2969-10.18-7.4531-11.219-5.1602-1.0508-10.18 2.2969-11.219 7.4531-0.32422 1.6094-0.73438 3.1484-1.1992 4.6484-4.0703-1.7695-8.5547-2.7656-13.273-2.7656-18.41 0-33.332 14.926-33.332 33.332 0 18.41 14.926 33.332 33.332 33.332 15.398 0 28.324-10.457 32.148-24.648 11.598-2.8164 21.059-8.5742 27.723-17.098 3.2461-4.1367 2.5117-10.125-1.6289-13.363z"/>
  <path d="m1111 687.05c-1.1602-3.1055-3.875-5.3867-7.1289-6.0156-2.2852-0.44141-56.199-11.551-75.625-75.109-11.988-39.223-6.8945-115.88-1.9727-190.01 3.5742-53.809 7.2695-109.45 4.2812-150.63-7.457-102.77-49.469-173.92-112.39-190.34-41.84-10.926-74.254 7.3945-92.156 21.98-3.0352-17.535-11.695-41.137-35.871-52.832-27.887-13.488-54.223-3.2227-68.199 4.7031-7.1992-14.738-22.938-39.551-49.777-46.953-29.574-8.1602-59.125 12.898-72.145 24.039-13.016-11.137-42.574-32.199-72.145-24.039-26.84 7.4062-42.578 32.215-49.777 46.953-13.973-7.9297-40.309-18.191-68.199-4.7031-24.176 11.695-32.836 35.297-35.871 52.832-17.906-14.59-50.32-32.91-92.152-21.98-62.918 16.422-104.93 87.578-112.39 190.34-2.9883 41.188 0.70703 96.828 4.2812 150.63 4.9219 74.133 10.016 150.79-1.9727 190.01-19.43 63.559-73.34 74.668-75.59 75.102-3.2734 0.60547-5.9922 2.8828-7.168 5.9961-1.1797 3.1133-0.64453 6.6172 1.4062 9.2383 2.3008 2.9375 57.137 71.938 130.02 71.938 52.176 0 86.23-23.395 101.92-37.371 25.129 46.488 60.105 75.574 62.078 77.188 3.4727 2.8477 8.4609 2.8828 11.965 0.085937 3.5117-2.793 4.5977-7.6602 2.6055-11.68-0.23047-0.47266-20.156-41.234-28.098-95.301 3.3555 5.625 6.8711 10.492 10.543 14.535 27.469 30.254 71.281 49.5 132.83 58.188v42.859c-19.094-10.141-42.031-12.516-68.676-6.9609-3.668 0.76562-6.5508 3.6133-7.3555 7.2773-4.7578 21.641-0.82422 43.785 10.797 62.375-27.547 12-59.281 21.434-85.367 29.188-15.965 4.7461-29.754 8.8438-40.348 12.797-58.152 21.691-119.96 73.332-119.96 126.3 0 38.926 21.016 74.398 53.758 94.625v48.168c0 5.2578 4.2656 9.5234 9.5234 9.5234s9.5234-4.2656 9.5234-9.5234v-38.699c3.8672 1.5039 7.832 2.832 11.91 3.9297 33.742 9.1172 73.344 3.2852 92.852-0.69141v35.461c0 5.2578 4.2656 9.5234 9.5234 9.5234h419.05c5.2578 0 9.5234-4.2656 9.5234-9.5234v-35.461c19.508 3.9727 59.113 9.8086 92.852 0.69141 4.0781-1.1016 8.043-2.4297 11.91-3.9297v38.699c0 5.2578 4.2656 9.5234 9.5234 9.5234 5.2578 0 9.5234-4.2656 9.5234-9.5234v-48.168c32.746-20.223 53.758-55.699 53.758-94.625 0-52.973-61.805-104.61-119.96-126.3-10.594-3.9531-24.383-8.0508-40.348-12.797-26.082-7.7539-57.82-17.188-85.367-29.188 11.617-18.59 15.555-40.734 10.797-62.375-0.80469-3.6602-3.6875-6.5078-7.3555-7.2773-26.641-5.5625-49.578-3.1875-68.676 6.957v-42.855c61.547-8.6875 105.36-27.934 132.83-58.188 3.668-4.0391 7.1797-8.8984 10.531-14.516-7.9453 53.949-27.855 94.816-28.09 95.281-1.9922 4.0195-0.90625 8.8867 2.6055 11.68 1.7344 1.3828 3.832 2.0703 5.9297 2.0703 2.1406 0 4.2852-0.71875 6.0352-2.1562 1.9727-1.6133 36.949-30.699 62.078-77.188 15.688 13.973 49.746 37.367 101.92 37.367 72.875 0 127.72-68.996 130.02-71.938 2.0664-2.6094 2.5898-6.0977 1.4258-9.207zm-729.79-559.59c2.7656 0.23828 5.4961-0.73047 7.4844-2.6562 1.9922-1.9297 3.0391-4.6406 2.8789-7.4102-0.023437-0.42188-2.1367-42.246 26.637-56.164 29.008-14.035 56.992 8.2148 58.145 9.1484 2.418 1.9844 5.6562 2.6484 8.6602 1.7891 3.0078-0.85547 5.4062-3.1445 6.4062-6.1055 0.13281-0.37891 13.215-38.059 41.531-45.871 27.797-7.6602 59.922 24.93 60.234 25.25 1.793 1.8516 4.2617 2.8945 6.8359 2.8984h0.015625c2.5703 0 5.0352-1.043 6.832-2.8867 0.32031-0.32812 32.441-32.93 60.242-25.258 28.316 7.8125 41.402 45.492 41.523 45.855 0.99219 2.9609 3.3867 5.2344 6.3828 6.1055 3 0.875 6.2461 0.21094 8.6719-1.7539 1.1758-0.95312 29.16-23.199 58.164-9.168 28.773 13.918 26.66 55.742 26.637 56.141-0.17188 2.7695 0.875 5.4727 2.8555 7.4102s4.6992 2.9258 7.4883 2.6797c0.39844-0.03125 40.41-3.1914 53.121 20.98 8.2812 15.746-4.9648 41.004-15.98 56.895-9.0195-13.254-26.312-35.465-53.438-57.762-38.453-31.605-104.8-69.285-202.5-69.285s-164.05 37.676-202.5 69.285c-27.125 22.297-44.418 44.508-53.438 57.762-11.02-15.895-24.262-41.148-15.984-56.898 12.703-24.168 52.723-21.012 53.102-20.98zm-124.04 337.5c0 46.484 15.656 85.801 38.797 99.523-1.4102 46.148-0.078124 87.242 5.6133 112.12 2.9414 12.852 7.1406 24.98 12.082 36.32-10.406 10.387-41.477 36.219-93.191 36.219-47.453 0-87.926-35.723-105.57-54.051 21.211-8.3281 58.785-30.18 75.117-83.605 13.008-42.566 7.8008-120.99 2.7656-196.84-3.5273-53.16-7.1797-108.12-4.2891-147.99 6.7344-92.84 44.367-159.24 98.203-173.29 32.039-8.3555 57.523 4.6328 72.648 16.184-16.551 2.5586-37.52 9.8945-48.105 30.031-16.32 31.039 13.492 72.594 23.629 85.305-3.5078 25.426-6.25 53.352-8.1406 83.137-3.6445 10.777-7.582 29.129-11.395 52.219-0.34375-0.007813-0.6875-0.046876-1.0312-0.046876-32.039 0-57.137 46.016-57.137 104.76zm55.195-85.566c-6.7734 46.246-12.758 105.64-15.438 160.83-11.418-14.027-20.715-41.223-20.715-75.262 0.003906-48.703 18.668-83.156 36.152-85.566zm431.85 447.84c2.1797 17.844-3.1562 35.719-15.059 49.848-1.8984 2.25-2.6445 5.2539-2.0312 8.1328 0.61328 2.875 2.5273 5.3086 5.1797 6.5898 31.066 14.973 68.52 26.102 98.613 35.051 12.461 3.7031 23.531 7.0039 32.582 10.078-1.2305 14.215-6.2891 38.469-21.094 47.199-18.766 11.062-53.766 7.1992-65.664 4.7734-3.8281-0.78516-7.7578 0.85547-9.8945 4.1406-2.1367 3.2812-2.0391 7.5391 0.23438 10.73 0.36328 0.50781 35.77 51.703 12.246 74.535-24.379 23.652-69.504-4.2305-69.949-4.5039-3.1484-1.9922-7.1797-1.9492-10.301 0.09375-3.125 2.043-4.7617 5.7344-4.1992 9.4258 0.28516 1.8555 6.5312 45.516-30.258 52.719-38.102 7.4453-55.094-31.875-55.785-33.527-1.4648-3.5586-4.9336-5.8672-8.7812-5.8789h-0.027344c-3.8359 0-7.3008 2.3125-8.7891 5.8516-0.70312 1.6797-17.711 41.008-55.797 33.551-36.789-7.1992-30.543-50.863-30.266-52.691 0.58594-3.6914-1.043-7.375-4.1602-9.4375-3.1172-2.0586-7.1562-2.1016-10.32-0.11328-0.45312 0.28516-45.59 28.168-69.961 4.5156-23.523-22.832 11.883-74.027 12.242-74.527 2.2812-3.1836 2.375-7.4375 0.24609-10.723-2.1328-3.2852-6.0508-4.9336-9.8945-4.1523-11.902 2.4219-46.906 6.2891-65.668-4.7734-14.805-8.7305-19.863-32.984-21.094-47.199 9.0508-3.0742 20.121-6.3711 32.582-10.078 30.094-8.9453 67.547-20.078 98.613-35.051 2.6484-1.2773 4.5625-3.7109 5.1797-6.5898 0.61719-2.8789-0.13281-5.8789-2.0312-8.1328-11.906-14.125-17.238-32.004-15.059-49.848 35.324-5.5781 61.168 6.1641 78.871 35.758 1.7891 2.9922 5.0742 4.8086 8.5586 4.6172 3.4844-0.13672 6.6133-2.1797 8.1602-5.3008 0.17969-0.36328 18.379-36.434 48.598-36.434s48.418 36.07 48.59 36.414c1.5352 3.1367 4.6641 5.1836 8.1562 5.332 3.4727 0.13281 6.7812-1.6289 8.5742-4.625 17.688-29.605 43.516-41.348 78.855-35.77zm-76.137 2.0898c-3.6992 3.4219-7.2227 7.1914-10.527 11.398-10.121-13.949-29.496-33.895-57.523-33.895-28.023 0-47.398 19.949-57.523 33.895-3.3008-4.2031-6.8281-7.9727-10.527-11.398 0.88672-3.9375 1.3828-7.9375 1.3828-11.98v-41.188c20.445 2.0625 42.648 3.0938 66.668 3.0938 24.02 0 46.223-1.0312 66.668-3.0938v41.188c0 4.043 0.5 8.0469 1.3828 11.98zm136.4-126.47c-34.551 38.051-103.34 57.344-204.45 57.344-101.11 0-169.89-19.293-204.45-57.344-10.402-11.457-19.625-31.676-27.43-60.07 1.9297-61.266 12.352-171.36 20.078-246.96 21.008-6.8086 100.51-29.906 211.8-29.906 111.29 0 190.79 23.102 211.8 29.906 7.7305 75.594 18.148 185.69 20.078 246.96-7.8086 28.398-17.031 48.621-27.43 60.074zm75.43-30.496c-8.1914 35.793-27.492 66.191-44.641 87.559 6.9844-22.684 13.836-52.285 15.66-84.902 3.8984-69.613-27.43-350.29-28.766-362.21-0.58984-5.2266-5.293-8.9922-10.527-8.4023-5.2266 0.58594-8.9883 5.2969-8.4062 10.527 0.09375 0.82812 2.7695 24.801 6.4609 60.219-15.289-4.6328-42.297-11.832-78.746-17.812-0.33594-37.371-3.2109-69.004-14.5-106.36-1.5234-5.0391-6.8516-7.875-11.871-6.3633-5.0352 1.5195-7.8828 6.8398-6.3633 11.871 10.332 34.191 13.191 63.602 13.645 97.961-20.59-2.8438-43.652-5.168-68.848-6.4648v-72.961c0-5.2578-4.2656-9.5234-9.5234-9.5234-5.2578 0-9.5234 4.2656-9.5234 9.5234v72.188c-7.8008-0.22266-15.777-0.34375-23.934-0.34375s-16.133 0.12109-23.934 0.34375v-72.188c0-5.2578-4.2656-9.5234-9.5234-9.5234-5.2578 0-9.5234 4.2656-9.5234 9.5234v72.961c-25.191 1.2969-48.258 3.6172-68.848 6.4648 0.45312-34.363 3.3125-63.773 13.645-97.961 1.5195-5.0352-1.3281-10.352-6.3633-11.871-5.0273-1.5195-10.352 1.3242-11.871 6.3633-11.289 37.355-14.16 68.988-14.5 106.36-36.449 5.9805-63.457 13.184-78.746 17.812 3.6914-35.418 6.3672-59.391 6.4609-60.219 0.58203-5.2305-3.1797-9.9414-8.4062-10.527-5.25-0.58594-9.9414 3.1758-10.527 8.4023-1.3359 11.914-32.664 292.59-28.766 362.21 1.8281 32.621 8.6797 62.219 15.66 84.898-17.148-21.367-36.445-51.766-44.637-87.559-17.016-74.34 7.9414-311.57 24.973-359.27 16.387-45.887 128.41-133.64 254.9-133.64 126.5 0 238.52 87.75 254.9 133.64 17.043 47.703 42 284.93 24.984 359.27zm99.68 76.789c-51.738 0-82.816-25.855-93.191-36.219 4.9414-11.34 9.1406-23.473 12.082-36.32 5.6953-24.883 7.0234-65.973 5.6133-112.12 23.145-13.723 38.797-53.043 38.797-99.523 0-58.746-25.102-104.76-57.145-104.76-0.34375 0-0.6875 0.035157-1.0312 0.046876-3.8125-23.09-7.7461-41.441-11.395-52.219-1.8945-29.789-4.6328-57.711-8.1406-83.137 10.137-12.707 39.949-54.266 23.629-85.305-10.586-20.137-31.555-27.473-48.105-30.031 15.129-11.551 40.613-24.547 72.656-16.18 53.832 14.051 91.465 80.457 98.199 173.29 2.8906 39.867-0.75781 94.832-4.2891 147.99-5.0352 75.844-10.246 154.27 2.7656 196.84 16.328 53.422 53.906 75.277 75.117 83.602-17.645 18.332-58.113 54.051-105.56 54.051zm-91.895-369.75c17.484 2.4102 36.148 36.867 36.148 85.566 0 34.039-9.2969 61.234-20.715 75.262-2.6719-55.184-8.6602-114.58-15.434-160.83z"/>
  <path d="m953.74 600.54c-0.22266-5.1133-4.4375-9.1055-9.5078-9.1055-0.14062 0-0.28125 0.003906-0.42578 0.007812-5.2539 0.23047-9.3281 4.6758-9.0938 9.9297 2.0508 46.773 15.461 87.598 39.859 121.34 1.8633 2.5781 4.7734 3.9453 7.7227 3.9453 1.9375 0 3.8867-0.58984 5.5742-1.8086 4.2617-3.082 5.2188-9.0352 2.1367-13.297-22.18-30.668-34.383-68.02-36.266-111.01z"/>
  <path d="m246.27 600.54c-1.8867 42.992-14.09 80.34-36.266 111.01-3.082 4.2617-2.125 10.215 2.1367 13.297 1.6875 1.2227 3.6367 1.8086 5.5742 1.8086 2.9492 0 5.8633-1.3672 7.7227-3.9453 24.398-33.742 37.809-74.562 39.859-121.34 0.23047-5.2539-3.8398-9.7031-9.0938-9.9297-5.3438-0.25391-9.7031 3.8359-9.9336 9.0938z"/>
  <path d="m617.29 902.68c-4.8555-4.1562-10.82-6.6445-17.285-6.6445-6.4648 0-12.43 2.4844-17.285 6.6445-17.242-6.4375-63.121-21.129-85.453-4.8086-18.277 13.355-23.984 44.43-18.941 66.758 3.6133 16.008 12.605 26.5 24.668 28.785 1.7812 0.33984 3.6602 0.49609 5.625 0.49609 17.43 0 41.305-12.516 59.148-23.684l-25.863 81.477c-1.5898 5.0117 1.1836 10.367 6.1992 11.957 0.95703 0.30469 1.9297 0.44922 2.8828 0.44922 4.0391 0 7.7891-2.5898 9.0781-6.6445l30.125-94.902c3.0742 1.2812 6.3672 2.0156 9.8164 2.0156 3.4492 0 6.7422-0.73438 9.8164-2.0156l30.125 94.902c1.2891 4.0586 5.0352 6.6445 9.0781 6.6445 0.95312 0 1.9258-0.14453 2.8828-0.44922 5.0117-1.5898 7.7891-6.9453 6.1992-11.957l-25.859-81.473c17.844 11.172 41.719 23.684 59.148 23.68 1.9609 0 3.8438-0.16016 5.625-0.49609 12.062-2.2852 21.059-12.777 24.668-28.785 5.0391-22.328-0.66797-53.398-18.941-66.758-22.344-16.32-68.215-1.6289-85.457 4.8086zm-17.285 42.848c-5.4805 0-10.285-7.1133-10.285-15.223 0-8.1094 4.8086-15.223 10.285-15.223 5.4766 0 10.285 7.1133 10.285 15.223-0.003907 8.1094-4.8086 15.223-10.285 15.223z"/>
 </g>
</svg>
